<svg width="1440" height="4136" viewBox="0 0 1440 4136" fill="none" xmlns="http://www.w3.org/2000/svg">
<path d="M1440.31 1937.94L1440 1938.89L-0.42757 1472.26L-0.119385 1471.31L1440.31 1937.94Z" fill="#A5A5A5"/>
<path d="M1440 839.893V840.893H-0.000732422L-0.000732422 839.893H1440Z" fill="#A5A5A5"/>
<path d="M1440.18 4134.32L1440 4135.3L0.00010106 3866.88L0.18335 3865.89L1440.18 4134.32Z" fill="#A5A5A5"/>
<path d="M1439.72 2914.93L1440 2915.89L-2.93255e-05 3335.89L-0.280029 3334.93L1439.72 2914.93Z" fill="#A5A5A5"/>
<path d="M990.049 1792.58L991 1792.89L777 2450.89L776.049 2450.58L990.049 1792.58Z" fill="#A5A5A5"/>
<path d="M1440 2447.89L1440 2448.89L0.00208333 2451.89L0 2450.89L1440 2447.89Z" fill="#A5A5A5"/>
<path d="M1136.55 0.000152856L1137 0.891898L-9.78708e-05 577.892L-0.452637 577L1136.55 0.000152856Z" fill="#A5A5A5"/>
<path d="M1136.11 1.3495L1137 0.892769L1386 485.893L1385.11 486.35L1136.11 1.3495Z" fill="#A5A5A5"/>
<path d="M768.102 187.332L769 186.893L946 548.893L945.102 549.332L768.102 187.332Z" fill="#A5A5A5"/>
<path d="M111.104 521.338L112 520.893L249 796.893L248.104 797.338L111.104 521.338Z" fill="#A5A5A5"/>
<path d="M744.451 651.785L744 650.893L946 548.893L946.451 549.785L744.451 651.785Z" fill="#A5A5A5"/>
</svg>
